<svg width="192" height="192" viewBox="0 0 192 192" xmlns="http://www.w3.org/2000/svg">
  <defs>
    <linearGradient id="grad1" x1="0%" y1="0%" x2="100%" y2="100%">
      <stop offset="0%" style="stop-color:#6366f1;stop-opacity:1" />
      <stop offset="100%" style="stop-color:#8b5cf6;stop-opacity:1" />
    </linearGradient>
  </defs>
  <rect width="192" height="192" rx="32" fill="url(#grad1)"/>
  <g transform="translate(32, 32)">
    <!-- Music note icon -->
    <path d="M40 20 L100 8 L100 88 C100 100 88 112 76 112 C64 112 52 100 52 88 C52 76 64 64 76 64 C82 64 88 66 92 70 L92 40 L52 48 L52 108 C52 120 40 132 28 132 C16 132 4 120 4 108 C4 96 16 84 28 84 C34 84 40 86 44 90 L44 20 Z" fill="white"/>
    <!-- Sync arrows -->
    <g transform="translate(100, 32)">
      <path d="M0 8 L8 0 L16 8 L12 8 L12 16 L4 16 L4 8 Z" fill="white" opacity="0.8"/>
      <path d="M16 24 L8 32 L0 24 L4 24 L4 16 L12 16 L12 24 Z" fill="white" opacity="0.8"/>
    </g>
  </g>
</svg>
